TITLE "おわり"
PERFORMER "梨本うい"
REM DATE "2009-11-15"
REM DISCID 38066605
FILE "梨本うい - おわり.flac" WAVE
  TRACK 01 AUDIO
    TITLE "現実逃避に誘われて"
    INDEX 01 00:00:00
  TRACK 02 AUDIO
    TITLE "あぁあぁあぁああぁあぁああぁ"
    INDEX 01 04:13:02
  TRACK 03 AUDIO
    TITLE "惨事のハニー"
    INDEX 01 07:52:52
  TRACK 04 AUDIO
    TITLE "ペテン師が笑う頃に"
    INDEX 01 13:12:57
  TRACK 05 AUDIO
    TITLE "ロケ花戦争"
    INDEX 01 16:53:57
